# xmcd CD database file
#
# Track frame offsets:
#	150
#	15227
#	31648
#	53518
#	70448
#	90183
#	107617
#	118238
#	136384
#	154220
#	172474
#
# Disc length: 2485 seconds
#
# Revision: 2
# Processed by: cddbd v1.5.1PL2 Copyright (c) Steve Scherf et al.
# Submitted via: CDex 1.51
#
DISCID=8709b30b
DTITLE=Hilda Kazasian - Jazz and Samba
DYEAR=1900
DGENRE=Jazz
TTITLE0=So danco samba
TTITLE1=One not samba
TTITLE2=Wave
TTITLE3=Girl from Ipanema
TTITLE4=Dindi
TTITLE5=Triste
TTITLE6=Desafinado
TTITLE7=How insensitive
TTITLE8=Waters of march
TTITLE9=Corcovado
TTITLE10=Cadabadu
EXTD=
EXTT0=
EXTT1=
EXTT2=
EXTT3=
EXTT4=
EXTT5=
EXTT6=
EXTT7=
EXTT8=
EXTT9=
EXTT10=
PLAYORDER=
